<svg xmlns="http://www.w3.org/2000/svg" viewBox="0 0 520 200">
  <defs>
    <linearGradient id="g" x1="0%" y1="0%" x2="100%" y2="100%">
      <stop offset="0%" stop-color="#6C63FF"/>
      <stop offset="100%" stop-color="#00D4AA"/>
    </linearGradient>
  </defs>

  <!-- Eye Icon -->
  <g transform="translate(0, 0)">
    <path d="M16,100 Q100,2 184,100 Q100,198 16,100 Z" fill="url(#g)" opacity="0.15"/>
    <path d="M16,100 Q100,2 184,100 Q100,198 16,100 Z" fill="none" stroke="url(#g)" stroke-width="10" stroke-linejoin="round"/>
    <circle cx="100" cy="100" r="42" fill="none" stroke="url(#g)" stroke-width="6" opacity="0.5"/>
    <path d="M100,52 L140,100 L100,92 Z" fill="url(#g)"/>
    <path d="M100,108 L140,100 L100,148 Z" fill="url(#g)"/>
    <path d="M100,52 L60,100 L100,92 Z" fill="url(#g)"/>
    <path d="M100,108 L60,100 L100,148 Z" fill="url(#g)"/>
    <circle cx="100" cy="100" r="18" fill="#0A0F1C"/>
    <circle cx="91" cy="91" r="6" fill="rgba(255,255,255,0.9)"/>
  </g>

  <!-- Wordmark: AnyVision. -->
  <text x="210" y="118" font-family="'Segoe UI', 'Helvetica Neue', Arial, sans-serif" font-size="56" font-weight="700" fill="#FFFFFF" letter-spacing="-1">
    AnyVision<tspan fill="url(#g)">.</tspan>
  </text>
</svg>